PathFileType	4	(X/Y/Z)	/Users/itak/Documents/Research/Walk-IL/dataset/trc/00518_00183.trc
DataRate	CameraRate	NumFrames	NumMarkers	Units	OrigDataRate	OrigDataStartFrame	OrigNumFrames
100.000000	100.000000	4	53	mm	100.000000	189	506
Frame#	Time	RPSI			LPSI			L3			STRN			T10			C7			CLAV			RBAK			LBAK			LSHO			LUPA			LAEL			LAOL			LWTS			LWPS			LFRA			LIFD			LHPS			LHTS			RSHO			RUPA			RAEL			RAOL			RWTS			RWPS			RFRA			RIFD			RHTS			RHPS			RBHD			LFHD			RFHD			LBHD			LHIP			RHIP			RASI			LASI			LKNE			LTHI			LANK			LTIP			LTOE			LMT1			LMT5			LHEE			RKNE			RANK			RTIP			RTOE			RMT1			RMT5			RHEE			RTHI			
		X1	Y1	Z1	X2	Y2	Z2	X3	Y3	Z3	X4	Y4	Z4	X5	Y5	Z5	X6	Y6	Z6	X7	Y7	Z7	X8	Y8	Z8	X9	Y9	Z9	X10	Y10	Z10	X11	Y11	Z11	X12	Y12	Z12	X13	Y13	Z13	X14	Y14	Z14	X15	Y15	Z15	X16	Y16	Z16	X17	Y17	Z17	X18	Y18	Z18	X19	Y19	Z19	X20	Y20	Z20	X21	Y21	Z21	X22	Y22	Z22	X23	Y23	Z23	X24	Y24	Z24	X25	Y25	Z25	X26	Y26	Z26	X27	Y27	Z27	X28	Y28	Z28	X29	Y29	Z29	X30	Y30	Z30	X31	Y31	Z31	X32	Y32	Z32	X33	Y33	Z33	X34	Y34	Z34	X35	Y35	Z35	X36	Y36	Z36	X37	Y37	Z37	X38	Y38	Z38	X39	Y39	Z39	X40	Y40	Z40	X41	Y41	Z41	X42	Y42	Z42	X43	Y43	Z43	X44	Y44	Z44	X45	Y45	Z45	X46	Y46	Z46	X47	Y47	Z47	X48	Y48	Z48	X49	Y49	Z49	X50	Y50	Z50	X51	Y51	Z51	X52	Y52	Z52	X53	Y53	Z53	

190	1.89	-675.397705078125	963.4673461914062	-267.5260009765625	-656.6149291992188	950.1276245117188	-389.4776306152344	-657.701904296875	1033.070190429688	-329.3394165039062	-428.2999267578125	1182.014038085938	-307.8496398925781	-659.079833984375	1138.60595703125	-324.882080078125	-598.9896850585938	1364.26025390625	-320.6025695800781	-455.1900634765625	1279.5380859375	-310.5916137695312	-663.069091796875	1247.32080078125	-236.0659332275391	-622.7769165039062	1311.3154296875	-408.489013671875	-521.5381469726562	1354.05859375	-475.1382141113281	-544.0459594726562	1230.777587890625	-535.681884765625	-562.865234375	1022.189086914062	-563.200927734375	-634.2637329101562	1023.041564941406	-492.7648315429688	-503.6588439941406	822.1444702148438	-526.830322265625	-587.5118408203125	799.4423217773438	-565.1458740234375	-557.2908935546875	935.6358032226562	-566.1550903320312	-527.0733032226562	665.7689208984375	-518.989501953125	-571.4537353515625	743.2177734375	-561.7628173828125	-507.4237365722656	744.4989624023438	-546.0638427734375	-557.2302856445312	1360.09765625	-170.0171661376953	-580.5137939453125	1296.324829101562	-111.2648849487305	-576.9118041992188	1032.188598632812	-47.0335578918457	-625.4775390625	1010.800109863281	-86.27542114257812	-473.0476989746094	828.3861694335938	-55.17668533325195	-551.3717041015625	807.7630615234375	-12.47498512268066	-573.3567504882812	978.2613525390625	-36.39769744873047	-472.3616333007812	671.2272338867188	-32.60344696044922	-460.7406921386719	740.2074584960938	-18.50954246520996	-529.343994140625	739.7686767578125	-2.152526617050171	-568.2626953125	1510.925170898438	-236.2006378173828	-431.7796020507812	1580.074829101562	-365.35009765625	-447.4765014648438	1577.194702148438	-239.1084747314453	-563.6983032226562	1508.977294921875	-396.0097961425781	-524.4932861328125	872.6673583984375	-494.5845642089844	-598.6467895507812	868.106689453125	-120.6768188476562	-486.2567443847656	907.9742431640625	-168.509521484375	-451.40234375	910.9720458984375	-406.9505615234375	-345.7536926269531	497.4307861328125	-400.0786437988281	-404.9864807128906	641.0502319335938	-442.54638671875	-593.5157470703125	136.3258972167969	-431.9448547363281	-412.6554870605469	370.8468627929688	-413.1835327148438	-425.6564331054688	50.79108047485352	-373.6943969726562	-491.7226867675781	75.37313079833984	-339.3703918457031	-501.7630310058594	85.08297729492188	-443.4428405761719	-637.7490844726562	150.5892181396484	-371.4914855957031	-590.6482543945312	474.8094177246094	-168.0563507080078	-687.9505615234375	50.6041259765625	-232.8428039550781	-594.5769653320312	328.9824829101562	-195.4693145751953	-483.4862060546875	43.01649856567383	-235.700927734375	-539.8868408203125	46.64686965942383	-286.6415100097656	-580.5675659179688	45.13962936401367	-198.2992706298828	-731.3385620117188	42.60562133789062	-288.3918151855469	-574.77392578125	735.4970703125	-117.7065505981445	
191	1.9	-666.7440185546875	962.5348510742188	-265.2091369628906	-648.1539306640625	949.5599975585938	-387.2523803710938	-649.1696166992188	1032.289672851562	-326.7039184570312	-419.9446716308594	1181.432861328125	-305.9504699707031	-650.673828125	1137.843994140625	-322.2913513183594	-590.6563720703125	1363.526977539062	-318.35546875	-446.9023742675781	1278.913818359375	-308.7121276855469	-654.396240234375	1246.587158203125	-233.5392456054688	-614.648681640625	1310.477905273438	-406.0651245117188	-513.8228149414062	1353.189331054688	-473.1929931640625	-536.2943115234375	1229.809692382812	-533.5596313476562	-555.1651000976562	1021.169555664062	-560.7543334960938	-626.4284057617188	1022.154296875	-490.2352294921875	-496.8058471679688	820.6124267578125	-523.888671875	-580.54833984375	798.4982299804688	-562.7996826171875	-549.7942504882812	934.5194091796875	-563.6482543945312	-521.6541137695312	664.3209838867188	-515.9817504882812	-564.9308471679688	742.140625	-559.2701416015625	-501.0064697265625	742.9114990234375	-543.0011596679688	-548.469482421875	1359.594482421875	-167.9214477539062	-571.3029174804688	1295.795776367188	-108.9418487548828	-564.682861328125	1031.713134765625	-44.2818717956543	-613.4397583007812	1009.83447265625	-82.97442626953125	-457.5250854492188	829.8175659179688	-53.61893081665039	-534.7276000976562	807.7964477539062	-9.950779914855957	-560.209716796875	977.7950439453125	-33.61102676391602	-453.2001953125	672.9197387695312	-30.8460865020752	-442.8131103515625	742.1204833984375	-16.95828056335449	-511.1896667480469	740.2883911132812	0.1774379462003708	-559.4210205078125	1510.5078125	-234.3611297607422	-422.9731750488281	1579.052124023438	-363.8285827636719	-438.4652709960938	1576.415405273438	-237.5500335693359	-555.1051635742188	1508.26806640625	-394.1500549316406	-515.7440795898438	872.9302368164062	-492.6955261230469	-590.0411376953125	866.8618774414062	-118.6839447021484	-477.5872497558594	906.6358642578125	-166.4125213623047	-442.8756713867188	910.7911376953125	-404.8662414550781	-332.2113647460938	500.7467956542969	-397.3846435546875	-393.5159606933594	643.2115478515625	-440.490234375	-561.9783325195312	126.5695571899414	-425.8843688964844	-393.4809875488281	370.3823547363281	-409.6815185546875	-389.0836181640625	51.8303108215332	-367.1269226074219	-456.3961181640625	72.50910949707031	-332.8563537597656	-467.2493591308594	80.59390258789062	-437.0290832519531	-606.4854125976562	138.7422332763672	-365.3304748535156	-586.7909545898438	473.8270874023438	-166.9889678955078	-687.7459106445312	50.81508255004883	-233.1245727539062	-592.2931518554688	328.24365234375	-195.2535552978516	-483.3513488769531	42.83395767211914	-235.6890716552734	-539.6896362304688	46.33648681640625	-286.8961181640625	-580.4413452148438	45.16055679321289	-198.50830078125	-731.2437744140625	42.8958625793457	-288.6122436523438	-567.2077026367188	734.216796875	-115.9822616577148	
192	1.91	-658.0733642578125	961.412353515625	-262.9838562011719	-639.6080932617188	948.76513671875	-385.0955505371094	-640.6315307617188	1031.323364257812	-324.1947937011719	-411.5254516601562	1180.621215820312	-304.1017456054688	-642.248291015625	1136.921508789062	-319.8088073730469	-582.2197875976562	1362.612915039062	-316.1441040039062	-438.528076171875	1278.065063476562	-306.8668823242188	-645.6781005859375	1245.677734375	-231.0983123779297	-606.4120483398438	1309.470947265625	-403.6880798339844	-505.98388671875	1352.134399414062	-471.2823181152344	-528.4669189453125	1228.661010742188	-531.4682006835938	-547.439697265625	1019.977294921875	-558.3757934570312	-618.5162963867188	1021.0732421875	-487.7094116210938	-489.8463439941406	818.9537963867188	-521.2005615234375	-573.5555419921875	797.4022827148438	-560.5028076171875	-542.27734375	933.2294311523438	-561.2367553710938	-516.0072021484375	662.7410278320312	-513.3414306640625	-558.33447265625	740.9295043945312	-556.9342651367188	-494.509765625	741.2052612304688	-540.2747802734375	-539.640869140625	1358.839111328125	-165.8402709960938	-562.0584716796875	1294.993041992188	-106.6825256347656	-552.5866088867188	1030.99755859375	-41.66019821166992	-601.4954223632812	1008.625854492188	-79.83858489990234	-442.0685729980469	831.1935424804688	-52.28305053710938	-518.0942993164062	807.6889038085938	-7.666020393371582	-547.1917114257812	977.095947265625	-30.96560859680176	-433.9180603027344	674.62646484375	-29.36334991455078	-424.8643493652344	744.0308227539062	-15.652099609375	-492.9805297851562	740.7261962890625	2.238495826721191	-550.49560546875	1509.869995117188	-232.5493011474609	-414.1192626953125	1577.8447265625	-362.3505554199219	-429.4002380371094	1575.47412109375	-236.0410766601562	-546.41748046875	1507.306762695312	-392.3161315917969	-506.9291076660156	872.8807373046875	-490.811279296875	-581.448974609375	865.4935302734375	-116.7174758911133	-468.9114685058594	905.1848754882812	-164.3611602783203	-434.2534484863281	910.3952026367188	-402.8243103027344	-319.3285827636719	503.4645385742188	-395.0206604003906	-382.4826354980469	644.7973022460938	-438.6497192382812	-529.8492431640625	116.9930648803711	-420.0570678710938	-374.589599609375	369.5763549804688	-406.505859375	-352.5485229492188	53.34326171875	-360.9409790039062	-420.8616943359375	70.06814575195312	-326.6841735839844	-432.4347839355469	76.49895477294922	-430.93359375	-574.5154418945312	126.9990615844727	-359.3700561523438	-582.7922973632812	472.8167419433594	-166.0532836914062	-687.5342407226562	51.04783630371094	-233.4332427978516	-589.86083984375	327.4660949707031	-195.0941925048828	-483.21728515625	42.65756607055664	-235.6980133056641	-539.501220703125	46.00022506713867	-287.1736755371094	-580.3001708984375	45.19607925415039	-198.7496490478516	-731.1541137695312	43.22018432617188	-288.8447570800781	-559.6188354492188	732.8283081054688	-114.275016784668	
193	1.92	-649.3787231445312	960.11669921875	-260.8558349609375	-630.9725952148438	947.74853515625	-383.0105895996094	-632.0769653320312	1030.182250976562	-321.8202514648438	-403.0342407226562	1179.595458984375	-302.2976379394531	-633.7953491210938	1135.847534179688	-317.4398193359375	-573.677978515625	1361.52880859375	-313.974365234375	-430.0610656738281	1277.0078125	-305.0511779785156	-636.917724609375	1244.603393554688	-228.7459564208984	-598.0598754882812	1308.306762695312	-401.365478515625	-498.0021667480469	1350.907470703125	-469.4031677246094	-520.5530395507812	1227.349609375	-529.4077758789062	-539.6925048828125	1018.631958007812	-556.0643310546875	-610.53125	1019.822021484375	-485.1854248046875	-482.7643127441406	817.19921875	-518.75732421875	-566.5167236328125	796.1664428710938	-558.2407836914062	-534.7404174804688	931.7884521484375	-558.9136352539062	-510.0824279785156	661.0560302734375	-511.0399780273438	-551.6434936523438	739.6009521484375	-554.727294921875	-487.905517578125	739.409423828125	-537.8678588867188	-530.74658203125	1357.848266601562	-163.7761383056641	-552.7788696289062	1293.93212890625	-104.4882125854492	-540.615478515625	1030.050170898438	-39.16744995117188	-589.631103515625	1007.18212890625	-76.88024139404297	-426.7017517089844	832.5099487304688	-51.16157150268555	-501.5083312988281	807.4546508789062	-5.620782852172852	-534.3011474609375	976.1746215820312	-28.4599666595459	-414.5861206054688	676.3480224609375	-28.15013122558594	-406.9501037597656	745.932861328125	-14.58308792114258	-474.7715148925781	741.093505859375	4.032480716705322	-541.4829711914062	1509.023071289062	-230.7605285644531	-405.2095336914062	1576.465942382812	-360.9109191894531	-420.2742309570312	1574.380737304688	-234.5776672363281	-537.6353759765625	1506.112670898438	-390.5058898925781	-498.0391235351562	872.5155029296875	-488.9271240234375	-572.8798828125	864.0199584960938	-114.7707061767578	-460.2295227050781	903.638427734375	-162.3494567871094	-425.5328063964844	909.7940673828125	-400.8164672851562	-307.0947265625	505.53515625	-392.9899597167969	-371.8778686523438	645.774169921875	-437.02734375	-497.2025451660156	107.7278747558594	-414.4615783691406	-356.0107727050781	368.4425964355469	-403.6558532714844	-316.1729125976562	55.37349319458008	-355.1238098144531	-385.24365234375	68.13174438476562	-320.8450622558594	-397.4294128417969	72.89306640625	-425.1462707519531	-541.9425048828125	115.5298538208008	-353.618896484375	-578.6525268554688	471.7850952148438	-165.2331848144531	-687.31689453125	51.30411148071289	-233.7607879638672	-587.2860717773438	326.6561584472656	-194.9731140136719	-483.0905151367188	42.491455078125	-235.7230987548828	-539.3252563476562	45.64483642578125	-287.4624328613281	-580.1444702148438	45.24424743652344	-199.0152435302734	-731.0694580078125	43.59104156494141	-289.0849304199219	-552.004638671875	731.344970703125	-112.5906982421875	
